<svg xmlns="http://www.w3.org/2000/svg" viewBox="0 0 320 240" role="img" aria-labelledby="cubeTitle cubeDesc">
  <title id="cubeTitle">Cube annote</title>
  <desc id="cubeDesc">Schema simple d'un cube avec une face, une arete et un sommet.</desc>
  <defs>
    <linearGradient id="faceFront" x1="0%" y1="0%" x2="100%" y2="100%">
      <stop offset="0%" stop-color="#49dcb1"/>
      <stop offset="100%" stop-color="#177c78"/>
    </linearGradient>
    <linearGradient id="faceTop" x1="0%" y1="0%" x2="100%" y2="100%">
      <stop offset="0%" stop-color="#ffb84d"/>
      <stop offset="100%" stop-color="#b26c16"/>
    </linearGradient>
    <linearGradient id="faceSide" x1="0%" y1="0%" x2="100%" y2="100%">
      <stop offset="0%" stop-color="#6bd2ff"/>
      <stop offset="100%" stop-color="#2d728f"/>
    </linearGradient>
  </defs>
  <rect width="320" height="240" rx="24" fill="#08151f"/>
  <polygon points="90,70 190,70 230,40 130,40" fill="url(#faceTop)" opacity="0.95"/>
  <polygon points="190,70 230,40 230,140 190,170" fill="url(#faceSide)" opacity="0.92"/>
  <rect x="90" y="70" width="100" height="100" fill="url(#faceFront)"/>
  <g fill="none" stroke="#dff6f5" stroke-width="4">
    <rect x="90" y="70" width="100" height="100"/>
    <path d="M190 70l40-30v100l-40 30zM90 70l40-30h100M190 170l40-30M130 40v100"/>
  </g>
  <circle cx="90" cy="70" r="5" fill="#ffffff"/>
  <g stroke="#ffffff" stroke-width="2" fill="none">
    <path d="M145 90h64"/>
    <path d="M110 122h-58"/>
    <path d="M92 67L44 26"/>
  </g>
  <g fill="#ffffff" font-family="Trebuchet MS, Verdana, sans-serif" font-size="16">
    <text x="214" y="95">Face</text>
    <text x="16" y="128">Arete</text>
    <text x="10" y="26">Sommet</text>
  </g>
</svg>
