<svg xmlns="http://www.w3.org/2000/svg" viewBox="0 0 1200 675" width="1200" height="675" role="img" aria-label="Fonctions trigonometriques">
  <defs>
    <linearGradient id="bg" x1="0" y1="0" x2="0" y2="1">
      <stop offset="0%" stop-color="#f8fafc"/>
      <stop offset="100%" stop-color="#ecfeff"/>
    </linearGradient>
  </defs>
  <rect width="1200" height="675" fill="url(#bg)"/>
  <rect x="60" y="120" width="1080" height="470" rx="24" fill="#ffffff" stroke="#cbd5e1" stroke-width="6"/>
  <line x1="90" y1="355" x2="1110" y2="355" stroke="#94a3b8" stroke-width="4"/>

  <path d="M90,355 C160,240 230,240 300,355 C370,470 440,470 510,355 C580,240 650,240 720,355 C790,470 860,470 930,355 C1000,240 1070,240 1110,300" fill="none" stroke="#16a34a" stroke-width="8"/>
  <path d="M90,280 C160,280 230,430 300,430 C370,430 440,280 510,280 C580,280 650,430 720,430 C790,430 860,280 930,280 C1000,280 1070,430 1110,430" fill="none" stroke="#ef4444" stroke-width="8"/>
  <path d="M90,355 C160,355 230,120 300,355 C370,590 440,355 510,355 C580,355 650,120 720,355 C790,590 860,355 930,355 C1000,355 1070,120 1110,355" fill="none" stroke="#7c3aed" stroke-width="6" stroke-dasharray="14 10"/>

  <text x="70" y="86" font-size="52" font-weight="900" font-family="Montserrat, Arial, sans-serif" fill="#0f172a">Fonctions trigonometriques</text>
  <text x="830" y="170" font-size="34" font-weight="800" font-family="Montserrat, Arial, sans-serif" fill="#16a34a">sin</text>
  <text x="900" y="170" font-size="34" font-weight="800" font-family="Montserrat, Arial, sans-serif" fill="#ef4444">cos</text>
  <text x="980" y="170" font-size="34" font-weight="800" font-family="Montserrat, Arial, sans-serif" fill="#7c3aed">tan</text>
</svg>
