<svg xmlns="http://www.w3.org/2000/svg" viewBox="0 0 1200 675" width="1200" height="675" role="img" aria-label="Effet de l amplitude">
  <defs>
    <linearGradient id="bg" x1="0" y1="0" x2="1" y2="1">
      <stop offset="0%" stop-color="#f0fdf4"/>
      <stop offset="100%" stop-color="#dcfce7"/>
    </linearGradient>
  </defs>
  <rect width="1200" height="675" fill="url(#bg)"/>
  <rect x="60" y="120" width="1080" height="470" rx="24" fill="#ffffff" stroke="#bbf7d0" stroke-width="6"/>
  <line x1="90" y1="355" x2="1110" y2="355" stroke="#86efac" stroke-width="4"/>

  <path d="M90,355 C160,295 230,295 300,355 C370,415 440,415 510,355 C580,295 650,295 720,355 C790,415 860,415 930,355 C1000,295 1070,295 1110,325" fill="none" stroke="#94a3b8" stroke-width="6"/>
  <path d="M90,355 C160,220 230,220 300,355 C370,490 440,490 510,355 C580,220 650,220 720,355 C790,490 860,490 930,355 C1000,220 1070,220 1110,275" fill="none" stroke="#2563eb" stroke-width="8"/>

  <line x1="130" y1="220" x2="130" y2="490" stroke="#0f172a" stroke-width="4" marker-end="url(#a)" marker-start="url(#a)"/>
  <defs>
    <marker id="a" markerWidth="8" markerHeight="8" refX="4" refY="4" orient="auto" markerUnits="strokeWidth">
      <path d="M0,0 L8,4 L0,8 z" fill="#0f172a"/>
    </marker>
  </defs>

  <text x="70" y="86" font-size="52" font-weight="900" font-family="Montserrat, Arial, sans-serif" fill="#0f172a">Effet de l amplitude</text>
  <text x="150" y="370" font-size="34" font-weight="800" font-family="Montserrat, Arial, sans-serif" fill="#0f172a">A</text>
</svg>
