<svg xmlns="http://www.w3.org/2000/svg" viewBox="0 0 1200 675" width="1200" height="675" role="img" aria-label="Effet de la periode">
  <defs>
    <linearGradient id="bg" x1="0" y1="0" x2="1" y2="1">
      <stop offset="0%" stop-color="#fff7ed"/>
      <stop offset="100%" stop-color="#ffedd5"/>
    </linearGradient>
  </defs>
  <rect width="1200" height="675" fill="url(#bg)"/>
  <rect x="60" y="120" width="1080" height="470" rx="24" fill="#ffffff" stroke="#fed7aa" stroke-width="6"/>
  <line x1="90" y1="355" x2="1110" y2="355" stroke="#fdba74" stroke-width="4"/>

  <path d="M90,355 C210,245 330,245 450,355 C570,465 690,465 810,355 C930,245 1050,245 1110,300" fill="none" stroke="#94a3b8" stroke-width="6"/>
  <path d="M90,355 C145,245 200,245 255,355 C310,465 365,465 420,355 C475,245 530,245 585,355 C640,465 695,465 750,355 C805,245 860,245 915,355 C970,465 1025,465 1080,355 C1090,335 1100,320 1110,310" fill="none" stroke="#ea580c" stroke-width="8"/>

  <line x1="200" y1="185" x2="450" y2="185" stroke="#0f172a" stroke-width="4" marker-start="url(#arr)" marker-end="url(#arr)"/>
  <line x1="200" y1="205" x2="310" y2="205" stroke="#0f172a" stroke-width="4" marker-start="url(#arr)" marker-end="url(#arr)"/>
  <defs>
    <marker id="arr" markerWidth="8" markerHeight="8" refX="4" refY="4" orient="auto" markerUnits="strokeWidth">
      <path d="M0,0 L8,4 L0,8 z" fill="#0f172a"/>
    </marker>
  </defs>

  <text x="70" y="86" font-size="52" font-weight="900" font-family="Montserrat, Arial, sans-serif" fill="#0f172a">Effet de la periode</text>
  <text x="470" y="192" font-size="30" font-weight="800" font-family="Montserrat, Arial, sans-serif" fill="#0f172a">T grand</text>
  <text x="320" y="213" font-size="30" font-weight="800" font-family="Montserrat, Arial, sans-serif" fill="#0f172a">T petit</text>
</svg>
